# xmcd
# 
# Track frame offsets:
#     180
#     38845
#     65831
#     84174
#     103279
#     124785
#     149043
#     176990
#     197662
#     217078
#     244890
#     262281
#     281744
#     296565
# 
# Disc length: 4300
# 
# Revision: 5
# Processed by: cddbd v1.5.2PL0 Copyright (c) Steve Scherf et al.
# Submitted via: fre:ac v1.0.27
# 
DISCID=f110ca0e
DTITLE=Black and Blue - BLACK and BLUE VOL. 2 - THE STORY OF THE BLUES 1976-1988 - CD2
DYEAR=1994
DGENRE=Blues
TTITLE0=Mighty Joe Young - Sweet Home Chicago
TTITLE1=Luther Allison - Love Me Papa
TTITLE2=Junior Wells - Messin' With The Kid
TTITLE3=Buddy Guy - One Room Country Shack
TTITLE4=Magic Slim - Livin' In My Neighborhood
TTITLE5=Lafayette Leake - Feel So Blue
TTITLE6=John Littlejohn - Burro Beat
TTITLE7=Lefty Dizz - Things That I Used To Do
TTITLE8=Jimmy Witherspoon - I Had A Dream
TTITLE9=J.B.Huuto - Please Help
TTITLE10=Robert Junior Lockwood - She's Little And Low
TTITLE11=Jimmy Johnson - Heap See
TTITLE12=Lowell Fulson - Thanks A Lot For The Offer
TTITLE13=John Watkins - Call The Plumber
EXTD=Fremeaux et Associes\nFA031
EXTT0=
EXTT1=
EXTT2=
EXTT3=
EXTT4=
EXTT5=
EXTT6=
EXTT7=
EXTT8=
EXTT9=
EXTT10=
EXTT11=
EXTT12=
EXTT13=
PLAYORDER=
